<?xml version="1.0" standalone="no"?>
<!DOCTYPE svg PUBLIC "-//W3C//DTD SVG 20010904//EN"
 "http://www.w3.org/TR/2001/REC-SVG-20010904/DTD/svg10.dtd">
<svg version="1.0" xmlns="http://www.w3.org/2000/svg"
 width="1000.000000pt" height="1000.000000pt" viewBox="0 0 1000.000000 1000.000000"
 preserveAspectRatio="xMidYMid meet">
<metadata>
Created by potrace 1.11, written by Peter Selinger 2001-2013
</metadata>
<g transform="translate(0.000000,1000.000000) scale(0.100000,-0.100000)"
fill="#000000" stroke="none">
<path d="M3058 7710 c-20 -11 -48 -35 -61 -52 -20 -27 -215 -362 -461 -791
-79 -139 -74 -137 -390 -137 -284 0 -331 -6 -377 -52 -63 -63 -59 29 -59
-1453 0 -1484 -4 -1390 60 -1454 17 -16 48 -35 68 -41 23 -6 210 -10 490 -10
l452 0 0 -660 c0 -711 -2 -688 52 -737 33 -30 94 -53 142 -53 62 1 134 45 163
99 l23 44 0 654 0 653 590 0 c618 0 711 5 890 44 433 97 833 419 1024 826 96
206 135 369 143 605 4 137 2 179 -17 290 -28 168 -75 308 -150 454 -215 415
-601 703 -1070 796 -112 22 -318 30 -440 16 -352 -40 -663 -191 -910 -440
-212 -214 -335 -439 -411 -747 -21 -84 -22 -116 -26 -581 l-4 -493 190 0 191
0 0 423 c0 458 5 520 55 677 92 287 303 533 575 670 643 324 1429 -41 1607
-746 25 -99 28 -125 27 -279 0 -151 -4 -181 -27 -268 -110 -410 -411 -711
-825 -825 l-97 -27 -1124 -3 -1123 -3 -43 26 c-29 16 -50 39 -64 68 -21 43
-21 49 -21 1024 l0 980 23 44 c15 27 38 52 63 66 36 21 51 23 224 23 204 0
246 7 287 49 15 16 135 215 266 444 131 228 247 427 258 442 12 14 38 34 60
45 37 20 62 20 1011 20 923 0 975 -1 1013 -19 22 -10 47 -27 56 -37 9 -10 108
-176 219 -369 111 -192 221 -381 243 -420 48 -83 72 -111 112 -133 27 -15 118
-17 941 -22 l911 -5 36 -28 c72 -54 67 22 67 -1085 l0 -999 -22 -33 c-13 -18
-36 -43 -51 -54 -28 -21 -35 -21 -905 -26 -790 -5 -880 -7 -907 -21 -140 -78
-120 -316 30 -358 28 -8 353 -11 1068 -11 902 0 1032 2 1064 15 50 21 72 42
94 90 18 38 19 102 19 1398 0 1457 2 1395 -48 1450 -49 54 5 52 -1073 57
l-996 5 -34 27 c-25 19 -101 143 -282 456 -136 236 -257 439 -268 451 -11 11
-37 30 -59 41 -39 20 -58 20 -1232 20 -1164 -1 -1194 -1 -1230 -20z"/>
<path d="M7063 6095 c-245 -53 -414 -300 -373 -545 48 -282 323 -465 595 -395
304 80 455 422 307 699 -37 70 -135 167 -202 199 -60 29 -174 57 -230 56 -19
0 -63 -7 -97 -14z m214 -312 c64 -51 83 -87 83 -158 0 -50 -5 -69 -29 -107
-63 -99 -210 -119 -295 -40 -138 129 -42 351 146 339 46 -3 65 -9 95 -34z"/>
</g>
</svg>
